Coordinates
version=1
nRows=10
nColumns=22
inDegrees=yes

Units are S.I. units (second, meters, Newtons, ...)
If the header above contains a line with 'inDegrees', this indicates whether rotational values are in degrees (yes) or radians (no).

endheader
time	pelvis_tilt	pelvis_list	pelvis_rotation	pelvis_tx	pelvis_ty	pelvis_tz	hip_flexion_r	hip_adduction_r	hip_rotation_r	knee_angle_r	ankle_angle_r	subtalar_angle_r	hip_flexion_l	hip_adduction_l	hip_rotation_l	knee_angle_l	ankle_angle_l	subtalar_angle_l	lumbar_extension	lumbar_bending	lumbar_rotation
      3.70000000	     -0.59952307	     -0.41852663	      1.79731732	     -1.04688679	      0.93929431	      0.08047909	     -1.00954852	      4.40893467	     -7.76952931	    -13.79916291	     15.91862659	     -1.08419729	     29.88055916	     -4.38384324	      2.11569104	    -46.60797655	      6.29329950	      2.59975544	    -14.49325433	     -1.77807602	      0.30812631
      3.71000000	     -0.48298080	     -0.44752435	      1.75486081	     -1.04966525	      0.93947210	      0.08115853	     -0.75943053	      4.46119974	     -7.72996532	    -14.14183023	     15.91124337	     -1.17168393	     29.48630768	     -4.41468287	      2.27843439	    -47.70863212	      6.58555774	      2.62648435	    -14.49247407	     -1.73753684	      0.12535319
      3.72000000	     -0.38135722	     -0.48076698	      1.69923644	     -1.05230061	      0.93958696	      0.08179050	     -0.48235855	      4.51075019	     -7.67352606	    -14.52119744	     15.91081425	     -1.24837633	     29.07301021	     -4.46269945	      2.39029905	    -48.74354961	      6.86832638	      2.63909771	    -14.46835862	     -1.68515020	     -0.05419097
      3.73000000	     -0.30115504	     -0.52036967	      1.63163591	     -1.05477707	      0.93963253	      0.08238730	     -0.18324010	      4.56304631	     -7.59801400	    -14.91689982	     15.91871920	     -1.31938603	     28.64510241	     -4.53133658	      2.45273521	    -49.69779585	      7.16193066	      2.63624231	    -14.40997999	     -1.62265456	     -0.22825526
      3.74000000	     -0.23275327	     -0.56027207	      1.55274987	     -1.05709253	      0.93963519	      0.08296426	      0.11946761	      4.61368889	     -7.51055048	    -15.31487893	     15.92562067	     -1.37682328	     28.18794913	     -4.61853449	      2.45929358	    -50.55049094	      7.45173224	      2.62563337	    -14.32735377	     -1.56162605	     -0.39557953
      3.75000000	     -0.17954469	     -0.60289465	      1.46525916	     -1.05924526	      0.93959570	      0.08350748	      0.41693177	      4.66628084	     -7.41696711	    -15.69262078	     15.93155337	     -1.42712928	     27.70319533	     -4.72229812	      2.41563089	    -51.28493632	      7.74984190	      2.61261268	    -14.21410561	     -1.49620180	     -0.55667382
      3.76000000	     -0.14006176	     -0.64561362	      1.37453232	     -1.06124104	      0.93952519	      0.08402089	      0.69785578	      4.71961768	     -7.32073688	    -16.03266572	     15.93123369	     -1.47506721	     27.18890991	     -4.83817856	      2.32625025	    -51.88637123	      8.05054405	      2.60188237	    -14.07158389	     -1.43042874	     -0.71606779
      3.77000000	     -0.12204373	     -0.69154133	      1.27271819	     -1.06309813	      0.93942574	      0.08453433	      0.96203361	      4.78373015	     -7.18459803	    -16.31458721	     15.92853632	     -1.54949473	     26.64929602	     -4.97229743	      2.18693249	    -52.33689578	      8.36577783	      2.57056624	    -13.89036655	     -1.36778323	     -0.87760682
      3.78000000	     -0.09619307	     -0.73222783	      1.18926539	     -1.06481106	      0.93934912	      0.08497376	      1.18409557	      4.83496953	     -7.13673230	    -16.55582532	     15.90520930	     -1.59319097	     26.05943737	     -5.10366770	      2.01022868	    -52.63008361	      8.67352238	      2.59470276	    -13.70613767	     -1.30761034	     -1.04644641
      3.79000000	     -0.08085985	     -0.77244413	      1.10009227	     -1.06640391	      0.93927705	      0.08541336	      1.36984661	      4.89224205	     -7.06183633	    -16.72343564	     15.87732294	     -1.64628058	     25.43401524	     -5.24806227	      1.78538384	    -52.75667680	      9.02025411	      2.64056893	    -13.49883563	     -1.25548548	     -1.22480220
